
      <svg data-logo="logo" xmlns="http://www.w3.org/2000/svg" viewBox="0 0 162 42">
        <g id="logogram" transform="translate(0, 1) rotate(0) "><path d="M24 0H16V12.0632C15.9663 14.2434 14.1885 16 12.0005 16H0V24H8.68629C10.808 24 12.8429 23.1571 14.3431 21.6569L21.6569 14.3431C23.1571 12.8429 24 10.808 24 8.68629V0Z" fill="url(#paint0_linear_7697_8782)"/><path d="M16 40H24V27.9368C24.0337 25.7566 25.8115 24 27.9995 24H40V16H31.3137C29.192 16 27.1571 16.8429 25.6569 18.3431L18.3431 25.6569C16.8429 27.1571 16 29.192 16 31.3137V40Z" fill="url(#paint1_linear_7697_8782)"/></g>
        <g id="logotype" transform="translate(46, 8)"><path fill="#257dd0" d="M18.43 26L13.53 26L13.53 5.91L6.53 5.91L6.53 1.50L25.43 1.50L25.43 5.91L18.43 5.91L18.43 26ZM28.93 26L24.20 26L24.20 7.80L28.79 7.80L28.79 11.26Q29.24 9.30 30.64 8.27Q32.04 7.24 34.42 7.38L34.42 7.38L34.42 11.82L33.76 11.82Q31.73 11.82 30.33 13.12Q28.93 14.41 28.93 16.69L28.93 16.69L28.93 26ZM43.42 26.45L43.42 26.45Q40.93 26.45 38.88 25.18Q36.84 23.90 35.63 21.75Q34.42 19.59 34.42 16.97L34.42 16.97Q34.42 15.01 35.12 13.28Q35.82 11.54 37.05 10.23Q38.27 8.92 39.90 8.17Q41.53 7.41 43.42 7.41L43.42 7.41Q45.80 7.41 47.13 8.31Q48.46 9.20 49.19 10.67L49.19 10.67L49.19 7.80L53.88 7.80L53.88 26L49.30 26L49.30 23.02Q48.56 24.57 47.21 25.51Q45.87 26.45 43.42 26.45ZM44.19 22.18L44.19 22.18Q45.76 22.18 46.90 21.47Q48.04 20.75 48.67 19.56Q49.30 18.37 49.30 16.97L49.30 16.97Q49.30 15.53 48.67 14.34Q48.04 13.15 46.90 12.42Q45.76 11.68 44.19 11.68L44.19 11.68Q42.68 11.68 41.54 12.40Q40.41 13.12 39.78 14.31Q39.15 15.50 39.15 16.93L39.15 16.93Q39.15 18.30 39.78 19.51Q40.41 20.71 41.54 21.45Q42.68 22.18 44.19 22.18ZM64.98 26.45L64.98 26.45Q62.49 26.45 60.44 25.18Q58.40 23.90 57.19 21.75Q55.98 19.59 55.98 16.97L55.98 16.97Q55.98 15.01 56.68 13.28Q57.38 11.54 58.61 10.23Q59.83 8.92 61.46 8.17Q63.09 7.41 64.98 7.41L64.98 7.41Q67.32 7.41 68.65 8.29Q69.98 9.16 70.72 10.60L70.72 10.60L70.72 0.45L75.44 0.45L75.44 26L70.86 26L70.86 23.02Q70.12 24.57 68.77 25.51Q67.43 26.45 64.98 26.45ZM65.75 22.18L65.75 22.18Q67.32 22.18 68.46 21.47Q69.60 20.75 70.23 19.56Q70.86 18.37 70.86 16.97L70.86 16.97Q70.86 15.53 70.23 14.34Q69.60 13.15 68.46 12.42Q67.32 11.68 65.75 11.68L65.75 11.68Q64.24 11.68 63.10 12.40Q61.97 13.12 61.34 14.31Q60.71 15.50 60.71 16.93L60.71 16.93Q60.71 18.30 61.34 19.51Q61.97 20.71 63.10 21.45Q64.24 22.18 65.75 22.18ZM86.95 26.45L86.95 26.45Q84.16 26.45 82.02 25.16Q79.89 23.86 78.71 21.71Q77.54 19.56 77.54 16.93L77.54 16.93Q77.54 14.31 78.77 12.12Q79.99 9.93 82.11 8.64Q84.23 7.34 86.95 7.34L86.95 7.34Q89.69 7.34 91.77 8.64Q93.85 9.93 95.02 12.12Q96.20 14.31 96.20 16.93L96.20 16.93Q96.20 17.32 96.16 17.74Q96.13 18.16 96.06 18.61L96.06 18.61L82.44 18.61Q82.83 20.23 84.00 21.24Q85.17 22.25 86.95 22.25L86.95 22.25Q88.50 22.25 89.63 21.55Q90.77 20.86 91.40 19.80L91.40 19.80L95.08 22.57Q93.99 24.29 91.82 25.37Q89.65 26.45 86.95 26.45ZM86.89 11.40L86.89 11.40Q85.20 11.40 84.02 12.42Q82.83 13.43 82.44 15.08L82.44 15.08L91.44 15.08Q91.05 13.57 89.84 12.49Q88.64 11.40 86.89 11.40ZM103.41 26L98.16 26L107.19 6.92Q107.43 6.40 107.89 5.80L107.89 5.80L96.51 5.80L96.51 1.50L114.89 1.50L114.96 2.02L103.41 26Z"/></g>
        <defs xmlns="http://www.w3.org/2000/svg">
<linearGradient id="paint0_linear_7697_8782" x1="20" y1="-0.997096" x2="20" y2="33.7931" gradientUnits="userSpaceOnUse">
<stop stop-color="#75D8FC"/>
<stop offset="1" stop-color="#0072E5"/>
</linearGradient>
<linearGradient id="paint1_linear_7697_8782" x1="20" y1="-0.997096" x2="20" y2="33.7931" gradientUnits="userSpaceOnUse">
<stop stop-color="#75D8FC"/>
<stop offset="1" stop-color="#0072E5"/>
</linearGradient>
</defs>
      </svg>
    